<?xml version="1.0" encoding="utf-8"?>
<!-- Generator: Adobe Illustrator 26.1.0, SVG Export Plug-In . SVG Version: 6.00 Build 0)  -->
<svg version="1.1" id="Layer_1" xmlns="http://www.w3.org/2000/svg" xmlns:xlink="http://www.w3.org/1999/xlink" x="0px" y="0px"
	 viewBox="0 0 1018.1 155.5" style="enable-background:new 0 0 1018.1 155.5;" xml:space="preserve">
<style type="text/css">
	.st0{fill:#64CBFF;}
</style>
<g>
	<g>
		<circle class="st0" cx="72.3" cy="50.9" r="28.2"/>
		<circle class="st0" cx="116.4" cy="127.2" r="28.2"/>
		<circle class="st0" cx="28.2" cy="127.2" r="28.2"/>
	</g>
	<g>
		<path class="st0" d="M295.8,48.9c-7.6-4.5-16.2-6.7-25.7-6.7c-9.5,0-18.1,2.2-25.8,6.7c-7.6,4.5-13.7,10.6-18.2,18.3
			c-4.5,7.7-6.7,16.4-6.7,26.1c0,9.7,2,18.3,6.1,26c4.1,7.6,9.7,13.7,16.8,18.2c7.1,4.5,15.1,6.7,24,6.7c8.9,0,16.9-2.2,24-6.7
			c4.4-2.7,8.2-6.1,11.4-10v6.8c0,2.7,0.9,4.9,2.7,6.7c1.8,1.8,4,2.7,6.7,2.7c2.7,0,4.9-0.9,6.7-2.7c1.8-1.8,2.7-4,2.7-6.7V93.2
			c0-9.7-2.2-18.4-6.7-26.1C309.4,59.5,303.4,53.4,295.8,48.9z M286.8,123.1c-4.9,3-10.5,4.5-16.7,4.5c-6.1,0-11.7-1.5-16.6-4.5
			c-5-3-8.9-7.1-11.7-12.3c-2.9-5.2-4.3-11-4.3-17.5c0-6.6,1.4-12.5,4.3-17.7c2.9-5.2,6.8-9.3,11.7-12.3c5-3,10.5-4.5,16.6-4.5
			c6.2,0,11.8,1.5,16.7,4.5c4.9,3,8.7,7.1,11.6,12.3c2.8,5.2,4.2,11.1,4.2,17.7c0,6.5-1.4,12.3-4.2,17.5
			C295.6,116,291.7,120.1,286.8,123.1z"/>
		<path class="st0" d="M426.7,48.9c-7.1-4.5-15.1-6.7-24-6.7c-7.2,0-13.9,1.5-19.9,4.5c-6.1,3-11.2,7.1-15.5,12.2V9.4
			c0-2.8-0.9-5.1-2.6-6.8c-1.7-1.7-4-2.6-6.8-2.6c-2.7,0-4.9,0.9-6.7,2.6c-1.8,1.7-2.7,4-2.7,6.8v83.7c0.1,9.7,2.4,18.4,6.8,26.1
			c4.4,7.7,10.4,13.8,18,18.3c7.6,4.5,16.2,6.7,25.7,6.7c9.7,0,18.3-2.2,25.9-6.7c7.6-4.5,13.6-10.6,18.1-18.3
			c4.5-7.7,6.7-16.4,6.7-26.1c0-9.7-2.1-18.3-6.1-26C439.4,59.4,433.8,53.4,426.7,48.9z M427.3,110.7c-2.9,5.3-6.8,9.4-11.7,12.4
			c-4.9,3-10.5,4.5-16.7,4.5c-6.1,0-11.7-1.5-16.6-4.5c-5-3-8.8-7.1-11.7-12.4c-2.8-5.3-4.2-11.1-4.2-17.6c0-6.6,1.4-12.5,4.2-17.6
			c2.8-5.1,6.7-9.2,11.7-12.2c5-3,10.5-4.5,16.6-4.5c6.2,0,11.8,1.5,16.7,4.5c4.9,3,8.8,7.1,11.7,12.2c2.9,5.1,4.3,11,4.3,17.6
			C431.7,99.6,430.2,105.4,427.3,110.7z"/>
		<path class="st0" d="M538.6,91.2c-5.3-2.8-12.6-5.1-21.8-7c-6.6-1.3-11.6-2.7-15.1-4.1c-3.4-1.4-5.7-3-6.9-4.8
			c-1.2-1.8-1.7-3.8-1.7-6c0-3.5,1.9-6.2,5.6-8.1c3.7-1.8,8.3-2.8,13.7-2.8c4.6,0,8.7,0.6,12.3,1.7c3.5,1.1,6.9,3.1,9.9,6.1
			c1.8,1.7,4.1,2.8,6.8,3.3c2.7,0.5,5,0.1,7-1.3c2-1.5,3-3.3,3.1-5.4c0.1-2.1-0.7-4.2-2.4-6.1c-3.7-4.5-8.6-8.1-14.9-10.6
			c-6.2-2.6-13.4-3.9-21.5-3.9c-6.2,0-12.2,1-18,3c-5.8,2-10.5,5.1-14.1,9.2c-3.7,4.1-5.5,9.3-5.5,15.5c0,7.1,2.8,13.1,8.4,18
			c5.6,4.9,14.5,8.6,26.9,11c9.5,1.7,16.1,3.9,19.7,6.6c3.6,2.7,5.4,5.9,5.2,9.5c-0.1,3.7-2.1,6.7-5.8,9c-3.7,2.3-9.2,3.5-16.2,3.5
			c-5.6,0-10.7-1-15.3-3c-4.6-2-7.9-4.2-10-6.5c-1.7-1.8-3.8-2.9-6.1-3.2c-2.4-0.3-4.8,0.5-7.3,2.5c-2.1,1.6-3.3,3.6-3.6,6.1
			c-0.3,2.5,0.5,4.7,2.3,6.7c4,4,9.7,7.4,17,10c7.3,2.6,15.2,3.9,23.8,3.9c8.7,0,15.9-1.3,21.8-4c5.8-2.7,10.2-6.3,13.2-10.8
			c3-4.5,4.5-9.6,4.5-15.2c0-4.9-1.2-9.2-3.5-12.9C547.7,97.3,543.9,94,538.6,91.2z"/>
		<path class="st0" d="M620,125h-6.2c-3.9,0-7.2-1.7-9.9-5c-2.7-3.3-4-7.4-4-12.3V62.4h15.6c2.6,0,4.6-0.7,6.2-2.2
			c1.6-1.5,2.4-3.3,2.4-5.5c0-2.4-0.8-4.4-2.4-5.9c-1.6-1.5-3.7-2.2-6.2-2.2h-15.6V20.2c0-2.7-0.9-4.9-2.6-6.6
			c-1.7-1.7-3.9-2.6-6.6-2.6c-2.7,0-4.9,0.9-6.6,2.6c-1.7,1.7-2.6,3.9-2.6,6.6v26.4H573c-2.6,0-4.7,0.7-6.2,2.2
			c-1.6,1.5-2.4,3.4-2.4,5.9c0,2.2,0.8,4,2.4,5.5c1.6,1.5,3.7,2.2,6.2,2.2h8.4v45.3c0,6.7,1.4,12.8,4.2,18.2
			c2.8,5.4,6.7,9.6,11.6,12.8c4.9,3.1,10.4,4.7,16.5,4.7h3.3c3.2,0,5.8-0.9,7.8-2.6c2-1.7,3-3.9,3-6.6c0-2.7-0.8-4.9-2.3-6.6
			C624.1,125.9,622.2,125,620,125z"/>
		<path class="st0" d="M716.4,45.4c-3.6-2.4-9.1-3.6-16.4-3.6c-7.3,0-14.1,1.7-20.2,5.1c-4.1,2.3-7.7,5.2-10.6,8.6v-3.4
			c0-3.1-0.8-5.4-2.3-6.9c-1.5-1.5-3.8-2.3-6.9-2.3c-2.9,0-5.2,0.8-6.8,2.4c-1.6,1.6-2.4,3.9-2.4,6.8v82.1c0,3.1,0.8,5.4,2.4,6.9
			c1.6,1.5,3.9,2.3,6.8,2.3c3.1,0,5.4-0.8,6.9-2.4c1.5-1.6,2.3-3.9,2.3-6.8V80.6c0-5.6,1.8-10.3,5.4-14c3.6-3.7,8.5-6.2,14.8-7.5
			c6.2-1.3,13.3-1.2,21.1,0.4c1.6,0.4,3.1,0.4,4.4,0.2c1.3-0.2,2.5-0.8,3.6-1.7c1-0.9,1.7-2.2,2.1-3.9
			C721.4,50.7,720.1,47.8,716.4,45.4z"/>
		<path class="st0" d="M803.9,48.9c-7.6-4.5-16.2-6.7-25.7-6.7c-9.5,0-18.1,2.2-25.8,6.7c-7.6,4.5-13.7,10.6-18.2,18.3
			c-4.5,7.7-6.7,16.4-6.7,26.1c0,9.7,2,18.3,6.1,26c4.1,7.6,9.7,13.7,16.8,18.2c7.1,4.5,15.1,6.7,24,6.7c8.9,0,16.9-2.2,24-6.7
			c4.4-2.7,8.2-6.1,11.4-10v6.8c0,2.7,0.9,4.9,2.7,6.7c1.8,1.8,4,2.7,6.7,2.7c2.7,0,4.9-0.9,6.7-2.7c1.8-1.8,2.7-4,2.7-6.7V93.2
			c0-9.7-2.2-18.4-6.7-26.1C817.5,59.5,811.5,53.4,803.9,48.9z M794.9,123.1c-4.9,3-10.5,4.5-16.7,4.5c-6.1,0-11.7-1.5-16.6-4.5
			c-5-3-8.9-7.1-11.7-12.3c-2.9-5.2-4.3-11-4.3-17.5c0-6.6,1.4-12.5,4.3-17.7c2.9-5.2,6.8-9.3,11.7-12.3c5-3,10.5-4.5,16.6-4.5
			c6.2,0,11.8,1.5,16.7,4.5c4.9,3,8.7,7.1,11.6,12.3c2.8,5.2,4.2,11.1,4.2,17.7c0,6.5-1.4,12.3-4.2,17.5
			C803.7,116,799.8,120.1,794.9,123.1z"/>
		<path class="st0" d="M921,46.3c-6-2.8-12.6-4.1-19.8-4.1c-9.7,0-18.2,2.2-25.7,6.5c-7.5,4.3-13.3,10.4-17.6,18.1
			c-4.3,7.7-6.4,16.5-6.4,26.4c0,9.7,2.2,18.3,6.5,26c4.3,7.6,10.3,13.7,18,18.2c7.6,4.5,16.4,6.7,26.2,6.7c13.2,0,24.2-4.1,33-12.3
			c1.7-1.7,2.4-3.6,2.2-5.8c-0.2-2.1-1.4-4.1-3.5-5.8c-1.6-1.3-3.4-1.9-5.5-1.7c-2.1,0.2-4.1,1.1-6.1,2.7c-2.7,2.2-5.7,3.8-8.9,4.9
			c-3.2,1-7,1.6-11.3,1.6c-6.5,0-12.2-1.5-17.1-4.5c-4.9-3-8.7-7.1-11.5-12.2c-2.8-5.1-4.1-11-4.1-17.6c0-7,1.3-13,4-18.2
			c2.7-5.1,6.4-9.1,11.2-12c4.8-2.9,10.3-4.3,16.5-4.3c8.9,0,16.4,3.2,22.4,9.5c1.7,1.7,3.6,2.8,5.7,3.2c2.1,0.4,4,0,5.7-1.2
			c2.2-1.6,3.5-3.4,4-5.5c0.5-2.1-0.1-4.1-1.8-6.1C932.4,53.2,927,49.1,921,46.3z"/>
		<path class="st0" d="M1015.3,127.6c-1.5-1.7-3.4-2.6-5.6-2.6h-6.2c-3.9,0-7.2-1.7-9.9-5c-2.7-3.3-4-7.4-4-12.3V62.4h15.6
			c2.6,0,4.6-0.7,6.2-2.2c1.6-1.5,2.4-3.3,2.4-5.5c0-2.4-0.8-4.4-2.4-5.9c-1.6-1.5-3.7-2.2-6.2-2.2h-15.6V20.2
			c0-2.7-0.9-4.9-2.6-6.6c-1.7-1.7-3.9-2.6-6.6-2.6c-2.7,0-4.9,0.9-6.6,2.6c-1.7,1.7-2.6,3.9-2.6,6.6v26.4h-8.4
			c-2.6,0-4.7,0.7-6.2,2.2c-1.6,1.5-2.4,3.4-2.4,5.9c0,2.2,0.8,4,2.4,5.5c1.6,1.5,3.7,2.2,6.2,2.2h8.4v45.3c0,6.7,1.4,12.8,4.2,18.2
			c2.8,5.4,6.7,9.6,11.6,12.8c4.9,3.1,10.4,4.7,16.5,4.7h3.3c3.2,0,5.8-0.9,7.8-2.6c2-1.7,3-3.9,3-6.6
			C1017.6,131.5,1016.8,129.3,1015.3,127.6z"/>
	</g>
</g>
</svg>
